<svg xmlns="http://www.w3.org/2000/svg" viewBox="0 0 128 140">
<rect width="128" height="140" fill="#1E1C15"/>
<rect x="18.75" y="7.50" width="10" height="10" fill="#DEDAD1"/>
<rect x="30.25" y="7.50" width="10" height="10" fill="#CFCABF"/>
<rect x="41.75" y="7.50" width="10" height="10" fill="#E2DDD4"/>
<rect x="53.25" y="7.50" width="10" height="10" fill="#D4CFC6"/>
<rect x="64.75" y="7.50" width="10" height="10" fill="#E8E4DC"/>
<rect x="76.25" y="7.50" width="10" height="10" fill="#D9D4CB"/>
<rect x="87.75" y="7.50" width="10" height="10" fill="#EBE7DF"/>
<rect x="99.25" y="7.50" width="10" height="10" fill="#DEDAD1"/>
<rect x="7.25" y="19.00" width="10" height="10" fill="#EBE7DF"/>
<rect x="18.75" y="19.00" width="10" height="10" fill="#D9D4CB"/>
<rect x="30.25" y="19.00" width="10" height="10" fill="#E8E4DC"/>
<rect x="41.75" y="19.00" width="10" height="10" fill="#D4CFC6"/>
<rect x="53.25" y="19.00" width="10" height="10" fill="#E2DDD4"/>
<rect x="64.75" y="19.00" width="10" height="10" fill="#CFCABF"/>
<rect x="76.25" y="19.00" width="10" height="10" fill="#DEDAD1"/>
<rect x="87.75" y="19.00" width="10" height="10" fill="#EBE7DF"/>
<rect x="99.25" y="19.00" width="10" height="10" fill="#D9D4CB"/>
<rect x="110.75" y="19.00" width="10" height="10" fill="#E8E4DC"/>
<rect x="7.25" y="30.50" width="10" height="10" fill="#EBE7DF"/>
<rect x="18.75" y="30.50" width="10" height="10" fill="#D4CFC6"/>
<rect x="41.75" y="30.50" width="10" height="10" fill="#C9963A"/>
<rect x="53.25" y="30.50" width="10" height="10" fill="#C9963A"/>
<rect x="64.75" y="30.50" width="10" height="10" fill="#C9963A"/>
<rect x="76.25" y="30.50" width="10" height="10" fill="#C9963A"/>
<rect x="99.25" y="30.50" width="10" height="10" fill="#D4CFC6"/>
<rect x="110.75" y="30.50" width="10" height="10" fill="#DEDAD1"/>
<rect x="7.25" y="42.00" width="10" height="10" fill="#EBE7DF"/>
<rect x="18.75" y="42.00" width="10" height="10" fill="#CFCABF"/>
<rect x="30.25" y="42.00" width="10" height="10" fill="#C9963A"/>
<rect x="41.75" y="42.00" width="10" height="10" fill="#D4A84E"/>
<rect x="53.25" y="42.00" width="10" height="10" fill="#DEDAD1"/>
<rect x="64.75" y="42.00" width="10" height="10" fill="#E2DDD4"/>
<rect x="76.25" y="42.00" width="10" height="10" fill="#D4A84E"/>
<rect x="87.75" y="42.00" width="10" height="10" fill="#C9963A"/>
<rect x="99.25" y="42.00" width="10" height="10" fill="#CFCABF"/>
<rect x="110.75" y="42.00" width="10" height="10" fill="#D4CFC6"/>
<rect x="7.25" y="53.50" width="10" height="10" fill="#EBE7DF"/>
<rect x="18.75" y="53.50" width="10" height="10" fill="#EBE7DF"/>
<rect x="30.25" y="53.50" width="10" height="10" fill="#C9963A"/>
<rect x="41.75" y="53.50" width="10" height="10" fill="#EBE7DF"/>
<rect x="53.25" y="53.50" width="10" height="10" fill="#D4A84E"/>
<rect x="64.75" y="53.50" width="10" height="10" fill="#D4A84E"/>
<rect x="76.25" y="53.50" width="10" height="10" fill="#EBE7DF"/>
<rect x="87.75" y="53.50" width="10" height="10" fill="#C9963A"/>
<rect x="99.25" y="53.50" width="10" height="10" fill="#EBE7DF"/>
<rect x="110.75" y="53.50" width="10" height="10" fill="#EBE7DF"/>
<rect x="7.25" y="65.00" width="10" height="10" fill="#EBE7DF"/>
<rect x="18.75" y="65.00" width="10" height="10" fill="#E8E4DC"/>
<rect x="30.25" y="65.00" width="10" height="10" fill="#C9963A"/>
<rect x="41.75" y="65.00" width="10" height="10" fill="#A87C28"/>
<rect x="53.25" y="65.00" width="10" height="10" fill="#A87C28"/>
<rect x="64.75" y="65.00" width="10" height="10" fill="#A87C28"/>
<rect x="76.25" y="65.00" width="10" height="10" fill="#A87C28"/>
<rect x="87.75" y="65.00" width="10" height="10" fill="#C9963A"/>
<rect x="99.25" y="65.00" width="10" height="10" fill="#E8E4DC"/>
<rect x="110.75" y="65.00" width="10" height="10" fill="#E2DDD4"/>
<rect x="7.25" y="76.50" width="10" height="10" fill="#EBE7DF"/>
<rect x="18.75" y="76.50" width="10" height="10" fill="#E2DDD4"/>
<rect x="30.25" y="76.50" width="10" height="10" fill="#C9963A"/>
<rect x="41.75" y="76.50" width="10" height="10" fill="#CFCABF"/>
<rect x="53.25" y="76.50" width="10" height="10" fill="#E8E4DC"/>
<rect x="64.75" y="76.50" width="10" height="10" fill="#DEDAD1"/>
<rect x="76.25" y="76.50" width="10" height="10" fill="#D4CFC6"/>
<rect x="87.75" y="76.50" width="10" height="10" fill="#C9963A"/>
<rect x="99.25" y="76.50" width="10" height="10" fill="#E2DDD4"/>
<rect x="110.75" y="76.50" width="10" height="10" fill="#D9D4CB"/>
<rect x="7.25" y="88.00" width="10" height="10" fill="#EBE7DF"/>
<rect x="18.75" y="88.00" width="10" height="10" fill="#DEDAD1"/>
<rect x="30.25" y="88.00" width="10" height="10" fill="#C9963A"/>
<rect x="41.75" y="88.00" width="10" height="10" fill="#E2DDD4"/>
<rect x="53.25" y="88.00" width="10" height="10" fill="#D4A84E"/>
<rect x="64.75" y="88.00" width="10" height="10" fill="#D4A84E"/>
<rect x="76.25" y="88.00" width="10" height="10" fill="#D9D4CB"/>
<rect x="87.75" y="88.00" width="10" height="10" fill="#C9963A"/>
<rect x="99.25" y="88.00" width="10" height="10" fill="#DEDAD1"/>
<rect x="110.75" y="88.00" width="10" height="10" fill="#CFCABF"/>
<rect x="7.25" y="99.50" width="10" height="10" fill="#EBE7DF"/>
<rect x="18.75" y="99.50" width="10" height="10" fill="#D9D4CB"/>
<rect x="41.75" y="99.50" width="10" height="10" fill="#C9963A"/>
<rect x="53.25" y="99.50" width="10" height="10" fill="#C9963A"/>
<rect x="64.75" y="99.50" width="10" height="10" fill="#C9963A"/>
<rect x="76.25" y="99.50" width="10" height="10" fill="#C9963A"/>
<rect x="99.25" y="99.50" width="10" height="10" fill="#D9D4CB"/>
<rect x="110.75" y="99.50" width="10" height="10" fill="#E8E4DC"/>
<rect x="7.25" y="111.00" width="10" height="10" fill="#EBE7DF"/>
<rect x="18.75" y="111.00" width="10" height="10" fill="#D4CFC6"/>
<rect x="30.25" y="111.00" width="10" height="10" fill="#DEDAD1"/>
<rect x="41.75" y="111.00" width="10" height="10" fill="#E8E4DC"/>
<rect x="53.25" y="111.00" width="10" height="10" fill="#CFCABF"/>
<rect x="64.75" y="111.00" width="10" height="10" fill="#D9D4CB"/>
<rect x="76.25" y="111.00" width="10" height="10" fill="#E2DDD4"/>
<rect x="87.75" y="111.00" width="10" height="10" fill="#EBE7DF"/>
<rect x="30.25" y="122.50" width="10" height="10" fill="#D4CFC6"/>
<rect x="41.75" y="122.50" width="10" height="10" fill="#D9D4CB"/>
</svg>